<svg xmlns="http://www.w3.org/2000/svg" xmlns:xlink="http://www.w3.org/1999/xlink" width="1366" zoomAndPan="magnify"
    viewBox="0 0 1024.5 470.25" height="627" preserveAspectRatio="xMidYMid meet" version="1.0">
    <defs>
        <g />
    </defs>
    <g fill="#ffffff" fill-opacity="1">
        <g transform="translate(317.260175, 280.053343)">
            <g>
                <path
                    d="M 111.328125 -21.1875 C 112.304688 -21.1875 112.796875 -20.78125 112.796875 -19.96875 C 112.796875 -19.488281 112.628906 -19.085938 112.296875 -18.765625 C 110.191406 -16.804688 107.066406 -14.363281 102.921875 -11.4375 C 98.785156 -8.519531 94.195312 -5.597656 89.15625 -2.671875 C 84.125 0.242188 79.050781 2.71875 73.9375 4.75 C 68.820312 6.78125 64.148438 7.796875 59.921875 7.796875 C 55.210938 7.796875 51.234375 5.601562 47.984375 1.21875 C 44.742188 -3.164062 41.820312 -7.632812 39.21875 -12.1875 C 38.570312 -13.476562 37.921875 -14.691406 37.265625 -15.828125 C 36.617188 -16.972656 35.890625 -18.113281 35.078125 -19.25 C 33.296875 -19.25 31.429688 -19.65625 29.484375 -20.46875 C 24.441406 -13.96875 20.007812 -7.875 16.1875 -2.1875 C 12.375 3.488281 9.820312 8.113281 8.53125 11.6875 C 9.007812 11.6875 9.25 12.175781 9.25 13.15625 C 9.09375 14.289062 8.8125 15.34375 8.40625 16.3125 C 8 17.289062 7.472656 17.863281 6.828125 18.03125 C 6.015625 18.351562 5.363281 18.109375 4.875 17.296875 L 4.625 16.328125 C 4.625 15.992188 4.664062 15.664062 4.75 15.34375 C 4.832031 15.019531 4.953125 14.535156 5.109375 13.890625 C 5.597656 10.640625 7.875 5.769531 11.9375 -0.71875 C 16 -7.21875 20.953125 -14.125 26.796875 -21.4375 C 23.867188 -23.0625 22.40625 -24.765625 22.40625 -26.546875 C 22.40625 -28.660156 23.546875 -29.71875 25.828125 -29.71875 C 28.097656 -29.71875 30.046875 -28.988281 31.671875 -27.53125 C 36.867188 -33.863281 42.269531 -39.992188 47.875 -45.921875 C 53.476562 -51.847656 58.796875 -56.921875 63.828125 -61.140625 C 64.148438 -61.472656 64.394531 -61.640625 64.5625 -61.640625 C 65.53125 -61.640625 66.015625 -61.148438 66.015625 -60.171875 C 66.015625 -59.847656 65.851562 -59.523438 65.53125 -59.203125 C 60.5 -54.972656 55.21875 -49.894531 49.6875 -43.96875 C 44.164062 -38.039062 38.8125 -31.910156 33.625 -25.578125 C 34.59375 -24.609375 35.566406 -23.390625 36.546875 -21.921875 L 37.515625 -21.921875 C 46.453125 -21.921875 54.894531 -23.300781 62.84375 -26.0625 C 70.800781 -28.820312 77.785156 -32.472656 83.796875 -37.015625 C 89.804688 -41.566406 94.554688 -46.519531 98.046875 -51.875 C 101.546875 -57.238281 103.296875 -62.441406 103.296875 -67.484375 C 103.296875 -76.085938 97.363281 -80.390625 85.5 -80.390625 C 77.21875 -80.390625 68.445312 -78.722656 59.1875 -75.390625 C 49.9375 -72.066406 41.25 -67.644531 33.125 -62.125 C 25.007812 -56.601562 18.597656 -50.507812 13.890625 -43.84375 C 13.722656 -43.363281 13.316406 -43.125 12.671875 -43.125 C 11.859375 -43.125 11.453125 -43.609375 11.453125 -44.578125 C 11.453125 -44.898438 11.53125 -45.144531 11.6875 -45.3125 C 16.5625 -52.289062 23.140625 -58.625 31.421875 -64.3125 C 39.703125 -70 48.675781 -74.585938 58.34375 -78.078125 C 68.007812 -81.566406 77.0625 -83.3125 85.5 -83.3125 C 99.144531 -83.3125 105.96875 -78.035156 105.96875 -67.484375 C 105.96875 -62.117188 104.179688 -56.59375 100.609375 -50.90625 C 97.035156 -45.226562 92.125 -39.992188 85.875 -35.203125 C 79.625 -30.410156 72.4375 -26.550781 64.3125 -23.625 C 56.1875 -20.707031 47.578125 -19.164062 38.484375 -19 L 41.65625 -13.640625 C 44.257812 -9.097656 46.976562 -4.875 49.8125 -0.96875 C 52.65625 2.925781 56.023438 4.875 59.921875 4.875 C 63.828125 4.875 68.253906 3.898438 73.203125 1.953125 C 78.160156 0.00390625 83.070312 -2.390625 87.9375 -5.234375 C 92.8125 -8.078125 97.28125 -10.921875 101.34375 -13.765625 C 105.40625 -16.609375 108.488281 -19.003906 110.59375 -20.953125 C 110.757812 -21.109375 111.003906 -21.1875 111.328125 -21.1875 Z M 28.5 -23.875 C 29.15625 -24.519531 29.644531 -25.085938 29.96875 -25.578125 C 29.3125 -25.898438 28.660156 -26.222656 28.015625 -26.546875 C 27.367188 -26.878906 26.640625 -27.046875 25.828125 -27.046875 C 25.335938 -27.046875 25.09375 -26.878906 25.09375 -26.546875 C 25.09375 -25.578125 26.226562 -24.6875 28.5 -23.875 Z M 31.1875 -22.90625 C 32.15625 -22.570312 32.722656 -22.40625 32.890625 -22.40625 C 32.722656 -22.738281 32.554688 -22.984375 32.390625 -23.140625 C 32.234375 -23.304688 32.070312 -23.46875 31.90625 -23.625 Z M 31.1875 -22.90625 " />
            </g>
        </g>
    </g>
    <g fill="#ffffff" fill-opacity="1">
        <g transform="translate(423.229881, 280.053343)">
            <g>
                <path
                    d="M 32.890625 0.25 C 27.046875 0.25 24.125 -2.1875 24.125 -7.0625 C 24.125 -9.5 24.769531 -12.015625 26.0625 -14.609375 C 27.363281 -17.210938 28.742188 -19.570312 30.203125 -21.6875 C 30.523438 -22.007812 30.601562 -22.25 30.4375 -22.40625 C 30.28125 -22.570312 30.039062 -22.492188 29.71875 -22.171875 C 28.582031 -21.515625 26.957031 -20.378906 24.84375 -18.765625 C 21.4375 -16.328125 17.660156 -13.6875 13.515625 -10.84375 C 9.378906 -8 5.441406 -5.519531 1.703125 -3.40625 C -2.023438 -1.300781 -5.03125 -0.25 -7.3125 -0.25 C -10.226562 -0.25 -11.6875 -1.546875 -11.6875 -4.140625 C -11.6875 -6.253906 -10.550781 -8.566406 -8.28125 -11.078125 C -6.007812 -13.597656 -3.171875 -15.992188 0.234375 -18.265625 C 3.648438 -20.546875 7.019531 -22.414062 10.34375 -23.875 C 13.675781 -25.332031 16.398438 -26.0625 18.515625 -26.0625 C 21.765625 -26.0625 24.035156 -24.84375 25.328125 -22.40625 C 30.523438 -26.3125 33.613281 -28.265625 34.59375 -28.265625 C 35.726562 -28.265625 36.296875 -27.691406 36.296875 -26.546875 C 36.296875 -25.898438 35.40625 -24.28125 33.625 -21.6875 C 32.15625 -19.570312 30.648438 -17.171875 29.109375 -14.484375 C 27.566406 -11.804688 26.796875 -9.332031 26.796875 -7.0625 C 26.796875 -4.144531 28.828125 -2.6875 32.890625 -2.6875 C 35.484375 -2.6875 39.296875 -3.492188 44.328125 -5.109375 C 49.367188 -6.734375 54.726562 -8.925781 60.40625 -11.6875 C 66.09375 -14.445312 71.210938 -17.535156 75.765625 -20.953125 C 75.921875 -21.109375 76.242188 -21.1875 76.734375 -21.1875 C 77.546875 -21.1875 77.953125 -20.78125 77.953125 -19.96875 C 77.953125 -19.488281 77.789062 -19.085938 77.46875 -18.765625 C 72.914062 -15.515625 67.71875 -12.425781 61.875 -9.5 C 56.03125 -6.570312 50.46875 -4.210938 45.1875 -2.421875 C 39.90625 -0.640625 35.804688 0.25 32.890625 0.25 Z M -7.3125 -3.171875 C -5.363281 -3.171875 -2.644531 -4.144531 0.84375 -6.09375 C 4.34375 -8.039062 8.082031 -10.394531 12.0625 -13.15625 C 16.039062 -15.914062 19.65625 -18.515625 22.90625 -20.953125 C 22.09375 -22.578125 20.628906 -23.390625 18.515625 -23.390625 C 16.398438 -23.390625 13.800781 -22.695312 10.71875 -21.3125 C 7.632812 -19.9375 4.585938 -18.148438 1.578125 -15.953125 C -1.421875 -13.765625 -3.9375 -11.613281 -5.96875 -9.5 C -8 -7.382812 -9.015625 -5.597656 -9.015625 -4.140625 C -9.015625 -3.492188 -8.445312 -3.171875 -7.3125 -3.171875 Z M -7.3125 -3.171875 " />
            </g>
        </g>
    </g>
    <g fill="#ffffff" fill-opacity="1">
        <g transform="translate(494.363589, 280.053343)">
            <g>
                <path
                    d="M -56.765625 72.109375 C -58.054688 72.109375 -58.539062 71.378906 -58.21875 69.921875 C -58.21875 69.921875 -58.21875 69.878906 -58.21875 69.796875 C -58.21875 69.710938 -58.140625 69.671875 -57.984375 69.671875 L -57.25 68.203125 C -53.832031 62.203125 -49.484375 55.222656 -44.203125 47.265625 C -38.929688 39.304688 -33.046875 30.738281 -26.546875 21.5625 C -20.054688 12.382812 -13.316406 3.164062 -6.328125 -6.09375 C -9.085938 -6.414062 -12.09375 -6.984375 -15.34375 -7.796875 C -18.59375 -8.609375 -21.921875 -9.582031 -25.328125 -10.71875 C -25.984375 -10.71875 -26.3125 -11.125 -26.3125 -11.9375 C -26.3125 -12.914062 -25.820312 -13.40625 -24.84375 -13.40625 C -24.6875 -13.40625 -24.523438 -13.320312 -24.359375 -13.15625 C -20.628906 -12.019531 -17.054688 -11.082031 -13.640625 -10.34375 C -10.234375 -9.613281 -7.148438 -9.085938 -4.390625 -8.765625 C -1.628906 -12.828125 1.457031 -16.890625 4.875 -20.953125 C 4.875 -21.109375 4.953125 -21.1875 5.109375 -21.1875 C 12.253906 -30.445312 19.28125 -39.300781 26.1875 -47.75 C 33.09375 -56.195312 39.546875 -63.625 45.546875 -70.03125 C 51.554688 -76.445312 56.710938 -81.519531 61.015625 -85.25 C 65.328125 -88.988281 68.535156 -90.859375 70.640625 -90.859375 C 73.242188 -90.859375 74.546875 -89.722656 74.546875 -87.453125 C 74.546875 -85.671875 73.164062 -82.75 70.40625 -78.6875 C 67.644531 -74.625 63.945312 -69.875 59.3125 -64.4375 C 54.6875 -59 49.410156 -53.4375 43.484375 -47.75 C 37.554688 -42.0625 31.460938 -36.660156 25.203125 -31.546875 C 18.953125 -26.429688 12.828125 -22.25 6.828125 -19 C 5.523438 -17.375 4.179688 -15.628906 2.796875 -13.765625 C 1.421875 -11.898438 0.0820312 -10.070312 -1.21875 -8.28125 L 1.953125 -8.28125 C 9.097656 -8.28125 16.28125 -9.007812 23.5 -10.46875 C 30.726562 -11.9375 38.242188 -15.429688 46.046875 -20.953125 C 46.203125 -21.109375 46.523438 -21.1875 47.015625 -21.1875 C 47.992188 -21.1875 48.484375 -20.78125 48.484375 -19.96875 C 48.484375 -19.488281 48.238281 -19.085938 47.75 -18.765625 C 39.625 -13.078125 31.742188 -9.421875 24.109375 -7.796875 C 16.484375 -6.171875 9.097656 -5.359375 1.953125 -5.359375 C 1.296875 -5.359375 0.523438 -5.398438 -0.359375 -5.484375 C -1.253906 -5.566406 -2.191406 -5.6875 -3.171875 -5.84375 C -12.910156 7.144531 -22.082031 19.851562 -30.6875 32.28125 C -39.300781 44.707031 -46.367188 55.46875 -51.890625 64.5625 C -51.242188 64.882812 -51.242188 65.453125 -51.890625 66.265625 C -52.703125 67.890625 -53.515625 69.269531 -54.328125 70.40625 C -55.140625 71.539062 -55.953125 72.109375 -56.765625 72.109375 Z M 11.453125 -25.09375 C 18.597656 -29.632812 25.703125 -35.070312 32.765625 -41.40625 C 39.828125 -47.75 46.28125 -54.125 52.125 -60.53125 C 57.976562 -66.945312 62.691406 -72.59375 66.265625 -77.46875 C 69.835938 -82.34375 71.625 -85.671875 71.625 -87.453125 C 71.625 -87.773438 71.296875 -87.9375 70.640625 -87.9375 C 68.210938 -87.9375 64.03125 -85.050781 58.09375 -79.28125 C 52.164062 -73.519531 45.140625 -65.890625 37.015625 -56.390625 C 28.898438 -46.890625 20.378906 -36.457031 11.453125 -25.09375 Z M 11.453125 -25.09375 " />
            </g>
        </g>
    </g>
    <g fill="#ffffff" fill-opacity="1">
        <g transform="translate(536.020671, 280.053343)">
            <g>
                <path
                    d="M 32.890625 0.25 C 27.046875 0.25 24.125 -2.1875 24.125 -7.0625 C 24.125 -9.5 24.769531 -12.015625 26.0625 -14.609375 C 27.363281 -17.210938 28.742188 -19.570312 30.203125 -21.6875 C 30.523438 -22.007812 30.601562 -22.25 30.4375 -22.40625 C 30.28125 -22.570312 30.039062 -22.492188 29.71875 -22.171875 C 28.582031 -21.515625 26.957031 -20.378906 24.84375 -18.765625 C 21.4375 -16.328125 17.660156 -13.6875 13.515625 -10.84375 C 9.378906 -8 5.441406 -5.519531 1.703125 -3.40625 C -2.023438 -1.300781 -5.03125 -0.25 -7.3125 -0.25 C -10.226562 -0.25 -11.6875 -1.546875 -11.6875 -4.140625 C -11.6875 -6.253906 -10.550781 -8.566406 -8.28125 -11.078125 C -6.007812 -13.597656 -3.171875 -15.992188 0.234375 -18.265625 C 3.648438 -20.546875 7.019531 -22.414062 10.34375 -23.875 C 13.675781 -25.332031 16.398438 -26.0625 18.515625 -26.0625 C 21.765625 -26.0625 24.035156 -24.84375 25.328125 -22.40625 C 30.523438 -26.3125 33.613281 -28.265625 34.59375 -28.265625 C 35.726562 -28.265625 36.296875 -27.691406 36.296875 -26.546875 C 36.296875 -25.898438 35.40625 -24.28125 33.625 -21.6875 C 32.15625 -19.570312 30.648438 -17.171875 29.109375 -14.484375 C 27.566406 -11.804688 26.796875 -9.332031 26.796875 -7.0625 C 26.796875 -4.144531 28.828125 -2.6875 32.890625 -2.6875 C 35.484375 -2.6875 39.296875 -3.492188 44.328125 -5.109375 C 49.367188 -6.734375 54.726562 -8.925781 60.40625 -11.6875 C 66.09375 -14.445312 71.210938 -17.535156 75.765625 -20.953125 C 75.921875 -21.109375 76.242188 -21.1875 76.734375 -21.1875 C 77.546875 -21.1875 77.953125 -20.78125 77.953125 -19.96875 C 77.953125 -19.488281 77.789062 -19.085938 77.46875 -18.765625 C 72.914062 -15.515625 67.71875 -12.425781 61.875 -9.5 C 56.03125 -6.570312 50.46875 -4.210938 45.1875 -2.421875 C 39.90625 -0.640625 35.804688 0.25 32.890625 0.25 Z M -7.3125 -3.171875 C -5.363281 -3.171875 -2.644531 -4.144531 0.84375 -6.09375 C 4.34375 -8.039062 8.082031 -10.394531 12.0625 -13.15625 C 16.039062 -15.914062 19.65625 -18.515625 22.90625 -20.953125 C 22.09375 -22.578125 20.628906 -23.390625 18.515625 -23.390625 C 16.398438 -23.390625 13.800781 -22.695312 10.71875 -21.3125 C 7.632812 -19.9375 4.585938 -18.148438 1.578125 -15.953125 C -1.421875 -13.765625 -3.9375 -11.613281 -5.96875 -9.5 C -8 -7.382812 -9.015625 -5.597656 -9.015625 -4.140625 C -9.015625 -3.492188 -8.445312 -3.171875 -7.3125 -3.171875 Z M -7.3125 -3.171875 " />
            </g>
        </g>
    </g>
    <g fill="#ffffff" fill-opacity="1">
        <g transform="translate(607.154379, 280.053343)">
            <g>
                <path
                    d="M -82.828125 99.640625 C -86.722656 99.640625 -88.671875 97.769531 -88.671875 94.03125 C -88.671875 88.507812 -83.148438 81.160156 -72.109375 71.984375 C -61.066406 62.804688 -43.851562 50.992188 -20.46875 36.546875 L 17.296875 13.890625 L 19 12.90625 C 21.601562 9.5 24.488281 5.359375 27.65625 0.484375 C 30.820312 -4.390625 33.660156 -9.097656 36.171875 -13.640625 C 38.691406 -18.191406 40.195312 -21.6875 40.6875 -24.125 C 40.6875 -25.09375 40.28125 -25.332031 39.46875 -24.84375 C 38.488281 -24.363281 37.101562 -23.429688 35.3125 -22.046875 C 33.53125 -20.660156 31.015625 -18.753906 27.765625 -16.328125 C 24.359375 -13.890625 20.707031 -11.289062 16.8125 -8.53125 C 12.914062 -5.769531 9.300781 -3.410156 5.96875 -1.453125 C 2.632812 0.492188 -0.0820312 1.46875 -2.1875 1.46875 C -5.113281 1.46875 -6.578125 0.164062 -6.578125 -2.4375 C -6.578125 -4.21875 -5.4375 -6.851562 -3.15625 -10.34375 C -0.882812 -13.84375 1.75 -17.335938 4.75 -20.828125 C 7.75 -24.316406 10.304688 -26.957031 12.421875 -28.75 C 12.585938 -28.75 12.707031 -28.785156 12.78125 -28.859375 C 12.863281 -28.941406 12.988281 -28.984375 13.15625 -28.984375 C 14.125 -28.984375 14.609375 -28.5 14.609375 -27.53125 C 14.609375 -27.207031 14.445312 -26.878906 14.125 -26.546875 C 11.6875 -24.441406 9.085938 -21.722656 6.328125 -18.390625 C 3.566406 -15.066406 1.210938 -11.898438 -0.734375 -8.890625 C -2.679688 -5.890625 -3.65625 -3.738281 -3.65625 -2.4375 C -3.65625 -1.789062 -3.164062 -1.46875 -2.1875 -1.46875 C -0.40625 -1.46875 2.023438 -2.359375 5.109375 -4.140625 C 8.203125 -5.929688 11.570312 -8.164062 15.21875 -10.84375 C 18.875 -13.519531 22.410156 -16.160156 25.828125 -18.765625 C 30.859375 -22.492188 34.390625 -25.007812 36.421875 -26.3125 C 38.453125 -27.613281 39.875 -28.265625 40.6875 -28.265625 C 42.632812 -28.265625 43.609375 -27.207031 43.609375 -25.09375 C 43.609375 -23.144531 41.941406 -18.921875 38.609375 -12.421875 C 35.285156 -5.929688 30.78125 1.289062 25.09375 9.25 C 35.320312 3.25 44.289062 -2.222656 52 -7.171875 C 59.71875 -12.128906 66.421875 -16.640625 72.109375 -20.703125 C 72.273438 -20.867188 72.519531 -20.953125 72.84375 -20.953125 C 73.8125 -20.953125 74.296875 -20.546875 74.296875 -19.734375 C 74.296875 -19.242188 74.132812 -18.835938 73.8125 -18.515625 C 68.457031 -14.941406 61.148438 -10.109375 51.890625 -4.015625 C 42.628906 2.066406 32.316406 8.441406 20.953125 15.109375 C 19.328125 17.210938 17.617188 19.320312 15.828125 21.4375 C 14.046875 23.550781 12.257812 25.660156 10.46875 27.765625 C 2.675781 36.378906 -5.765625 44.945312 -14.859375 53.46875 C -23.953125 62 -32.925781 69.753906 -41.78125 76.734375 C -50.632812 83.722656 -58.671875 89.285156 -65.890625 93.421875 C -73.117188 97.566406 -78.765625 99.640625 -82.828125 99.640625 Z M -82.828125 96.71875 C -79.253906 96.71875 -74.097656 94.804688 -67.359375 90.984375 C -60.617188 87.171875 -52.984375 81.929688 -44.453125 75.265625 C -35.929688 68.609375 -27.082031 61.054688 -17.90625 52.609375 C -8.726562 44.171875 0.0820312 35.242188 8.53125 25.828125 L 14.375 19 C 8.851562 22.25 3.289062 25.535156 -2.3125 28.859375 C -7.914062 32.191406 -13.476562 35.566406 -19 38.984375 C -41.570312 52.941406 -58.335938 64.425781 -69.296875 73.4375 C -80.265625 82.457031 -85.75 89.320312 -85.75 94.03125 C -85.75 95.820312 -84.773438 96.71875 -82.828125 96.71875 Z M -82.828125 96.71875 " />
            </g>
        </g>
    </g>
    <g fill="#ffffff" fill-opacity="1">
        <g transform="translate(674.885097, 280.053343)">
            <g>
                <path
                    d="M 2.46875 -0.328125 C 1.6875 -0.328125 1.160156 -0.613281 0.890625 -1.1875 C 0.617188 -1.757812 0.695312 -2.421875 1.125 -3.171875 C 1.488281 -3.816406 2.019531 -4.363281 2.71875 -4.8125 C 3.414062 -5.257812 4.109375 -5.484375 4.796875 -5.484375 C 5.578125 -5.484375 6.09375 -5.195312 6.34375 -4.625 C 6.601562 -4.050781 6.535156 -3.390625 6.140625 -2.640625 C 5.773438 -1.992188 5.242188 -1.445312 4.546875 -1 C 3.847656 -0.550781 3.15625 -0.328125 2.46875 -0.328125 Z M 2.46875 -0.328125 " />
            </g>
        </g>
    </g>
</svg>